# xmcd
#
# Track frame offsets:
#	150
#	21163
#	46168
#	69762
#	81497
#	91102
#	103461
#	114434
#	120215
#	128775
#	143759
#	169168
#	183808
#	212353
#	222421
#	227003
#	231883
#	237295
#	244200
#	248074
#
# Disc length: 3334 seconds
#
# Revision: 1
# Processed by: cddbd v1.5.2PL0 Copyright (c) Steve Scherf et al.
# Submitted via: audiograbber 1.83.01
#
DISCID=080d0414
DTITLE=Various Artist - The Absolute Sound Reference For HiFi Show And At Home
DTITLE=Vol. 4
DYEAR=2018
DGENRE=Audiophile
TTITLE0=Marco Saddik - Silko
TTITLE1=Fleurin - Portiges
TTITLE2=Barbara St. James - Hold On
TTITLE3=Matthias Kadar - France traditional
TTITLE4=Lils Mackintosh - Strange Fruit
TTITLE5=Arco - The Lux
TTITLE6=Utrechts Studenten Concert - Peter Gynt Suites 1
TTITLE7=Trombone Quartet - Classic Master Piece
TTITLE8=Weesper Men Quartet - Swing Low
TTITLE9=Ralph Rousseau and Eleonore Pameijer - Adagio Ma Non Tanto
TTITLE10=Michiel Ras - Organ
TTITLE11=Cesare Pollini - Il Chiodo
TTITLE12=4 Girls 4 Harps - Dances 1, 2, 3 - Prince Igor Polovtsian Dances
TTITLE13=STS Sound Library - Tampoer
TTITLE14=STS Sound Library - Tympani
TTITLE15=STS Sound Library - Frogs
TTITLE16=STS Sound Library - Rollercoaster
TTITLE17=STS Sound Library - DAF Truck With Organ
TTITLE18=STS Sound Library - Chinook Helicopter Ch-47
TTITLE19=STS Sound Library - Car Races
EXTD=
EXTT0=
EXTT1=
EXTT2=
EXTT3=
EXTT4=
EXTT5=
EXTT6=
EXTT7=
EXTT8=
EXTT9=
EXTT10=
EXTT11=
EXTT12=
EXTT13=
EXTT14=
EXTT15=
EXTT16=
EXTT17=
EXTT18=
EXTT19=
PLAYORDER=
